<?xml version="1.0" encoding="UTF-8"?>
<svg version="1.1" xmlns="http://www.w3.org/2000/svg" width="7600" height="7613">
<path d="M0 0 C75.24 0 150.48 0 228 0 C228 75.24 228 150.48 228 228 C278.16 228 328.32 228 380 228 C380 278.16 380 328.32 380 380 C405.08 380 430.16 380 456 380 C456 405.08 456 430.16 456 456 C481.08 456 506.16 456 532 456 C532 506.16 532 556.32 532 608 C557.08 608 582.16 608 608 608 C608 658.16 608 708.32 608 760 C633.08 760 658.16 760 684 760 C684 885.4 684 1010.8 684 1140 C658.92 1140 633.84 1140 608 1140 C608 1165.08 608 1190.16 608 1216 C582.92 1216 557.84 1216 532 1216 C532 1241.08 532 1266.16 532 1292 C506.92 1292 481.84 1292 456 1292 C456 1317.08 456 1342.16 456 1368 C430.92 1368 405.84 1368 380 1368 C380 1418.16 380 1468.32 380 1520 C354.92 1520 329.84 1520 304 1520 C304 1545.08 304 1570.16 304 1596 C278.92 1596 253.84 1596 228 1596 C228 1696.32 228 1796.64 228 1900 C729.6 1900 1231.2 1900 1748 1900 C1748 2000.32 1748 2100.64 1748 2204 C1848.32 2204 1948.64 2204 2052 2204 C2052 2504.96 2052 2805.92 2052 3116 C1951.68 3116 1851.36 3116 1748 3116 C1748 3216.32 1748 3316.64 1748 3420 C644.48 3420 -459.04 3420 -1596 3420 C-1596 3319.68 -1596 3219.36 -1596 3116 C-1696.32 3116 -1796.64 3116 -1900 3116 C-1900 2815.04 -1900 2514.08 -1900 2204 C-1799.68 2204 -1699.36 2204 -1596 2204 C-1596 2103.68 -1596 2003.36 -1596 1900 C-1094.4 1900 -592.8 1900 -76 1900 C-76 1799.68 -76 1699.36 -76 1596 C-101.08 1596 -126.16 1596 -152 1596 C-152 1570.92 -152 1545.84 -152 1520 C-177.08 1520 -202.16 1520 -228 1520 C-228 1469.84 -228 1419.68 -228 1368 C-253.08 1368 -278.16 1368 -304 1368 C-304 1342.92 -304 1317.84 -304 1292 C-329.08 1292 -354.16 1292 -380 1292 C-380 1266.92 -380 1241.84 -380 1216 C-405.08 1216 -430.16 1216 -456 1216 C-456 1065.52 -456 915.04 -456 760 C-430.92 760 -405.84 760 -380 760 C-380 709.84 -380 659.68 -380 608 C-354.92 608 -329.84 608 -304 608 C-304 582.92 -304 557.84 -304 532 C-278.92 532 -253.84 532 -228 532 C-228 431.68 -228 331.36 -228 228 C-202.92 228 -177.84 228 -152 228 C-152 202.92 -152 177.84 -152 152 C-126.92 152 -101.84 152 -76 152 C-76 126.92 -76 101.84 -76 76 C-50.92 76 -25.84 76 0 76 C0 50.92 0 25.84 0 0 Z " fill="#000000" transform="translate(3724,85)"/>
<path d="M0 0 C100.32 0 200.64 0 304 0 C304 551.76 304 1103.52 304 1672 C2561.2 1672 4818.4 1672 7144 1672 C7144 1120.24 7144 568.48 7144 0 C7244.32 0 7344.64 0 7448 0 C7448 652.08 7448 1304.16 7448 1976 C4990.16 1976 2532.32 1976 0 1976 C0 1323.92 0 671.84 0 0 Z " fill="#000000" transform="translate(76,5557)"/>
<path d="M0 0 C2407.68 0 4815.36 0 7296 0 C7296 100.32 7296 200.64 7296 304 C4888.32 304 2480.64 304 0 304 C0 203.68 0 103.36 0 0 Z " fill="#000000" transform="translate(152,5101)"/>
<path d="M0 0 C2207.04 0 4414.08 0 6688 0 C6688 100.32 6688 200.64 6688 304 C4480.96 304 2273.92 304 0 304 C0 203.68 0 103.36 0 0 Z " fill="#000000" transform="translate(456,5481)"/>
<path d="M0 0 C50.16 0 100.32 0 152 0 C152 551.76 152 1103.52 152 1672 C2459.36 1672 4766.72 1672 7144 1672 C7144 1120.24 7144 568.48 7144 0 C7194.16 0 7244.32 0 7296 0 C7296 576.84 7296 1153.68 7296 1748 C7270.92 1748 7245.84 1748 7220 1748 C7220 1773.08 7220 1798.16 7220 1824 C4862.48 1824 2504.96 1824 76 1824 C76 1798.92 76 1773.84 76 1748 C50.92 1748 25.84 1748 0 1748 C0 1171.16 0 594.32 0 0 Z " fill="#FFFFFF" transform="translate(152,5633)"/>
<path d="M0 0 C1078.44 0 2156.88 0 3268 0 C3268 652.08 3268 1304.16 3268 1976 C3167.68 1976 3067.36 1976 2964 1976 C2964 1424.24 2964 872.48 2964 304 C1985.88 304 1007.76 304 0 304 C0 203.68 0 103.36 0 0 Z " fill="#000000" transform="translate(4256,1529)"/>
<path d="M0 0 C1078.44 0 2156.88 0 3268 0 C3268 100.32 3268 200.64 3268 304 C2289.88 304 1311.76 304 304 304 C304 855.76 304 1407.52 304 1976 C203.68 1976 103.36 1976 0 1976 C0 1323.92 0 671.84 0 0 Z " fill="#000000" transform="translate(76,1529)"/>
<path d="M0 0 C401.28 0 802.56 0 1216 0 C1216 75.24 1216 150.48 1216 228 C1241.08 228 1266.16 228 1292 228 C1292 253.08 1292 278.16 1292 304 C1342.16 304 1392.32 304 1444 304 C1444 278.92 1444 253.84 1444 228 C1469.08 228 1494.16 228 1520 228 C1520 152.76 1520 77.52 1520 0 C1620.32 0 1720.64 0 1824 0 C1824 75.24 1824 150.48 1824 228 C1899.24 228 1974.48 228 2052 228 C2052 202.92 2052 177.84 2052 152 C2001.84 152 1951.68 152 1900 152 C1900 101.84 1900 51.68 1900 0 C2175.88 0 2451.76 0 2736 0 C2736 100.32 2736 200.64 2736 304 C2786.16 304 2836.32 304 2888 304 C2888 329.08 2888 354.16 2888 380 C2862.92 380 2837.84 380 2812 380 C2812 405.08 2812 430.16 2812 456 C2786.92 456 2761.84 456 2736 456 C2736 481.08 2736 506.16 2736 532 C1833.12 532 930.24 532 0 532 C0 506.92 0 481.84 0 456 C-25.08 456 -50.16 456 -76 456 C-76 430.92 -76 405.84 -76 380 C-101.08 380 -126.16 380 -152 380 C-152 354.92 -152 329.84 -152 304 C-101.84 304 -51.68 304 0 304 C0 203.68 0 103.36 0 0 Z " fill="#B4B4B4" transform="translate(2432,2289)"/>
<path d="M0 0 C451.44 0 902.88 0 1368 0 C1368 50.16 1368 100.32 1368 152 C941.64 152 515.28 152 76 152 C76 227.24 76 302.48 76 380 C50.92 380 25.84 380 0 380 C0 405.08 0 430.16 0 456 C-75.24 456 -150.48 456 -228 456 C-228 606.48 -228 756.96 -228 912 C-152.76 912 -77.52 912 0 912 C0 937.08 0 962.16 0 988 C25.08 988 50.16 988 76 988 C76 1063.24 76 1138.48 76 1216 C1029.04 1216 1982.08 1216 2964 1216 C2964 1140.76 2964 1065.52 2964 988 C2989.08 988 3014.16 988 3040 988 C3040 962.92 3040 937.84 3040 912 C3115.24 912 3190.48 912 3268 912 C3268 761.52 3268 611.04 3268 456 C3192.76 456 3117.52 456 3040 456 C3040 430.92 3040 405.84 3040 380 C3014.92 380 2989.84 380 2964 380 C2964 304.76 2964 229.52 2964 152 C2537.64 152 2111.28 152 1672 152 C1672 101.84 1672 51.68 1672 0 C2123.44 0 2574.88 0 3040 0 C3040 25.08 3040 50.16 3040 76 C3065.08 76 3090.16 76 3116 76 C3116 151.24 3116 226.48 3116 304 C3191.24 304 3266.48 304 3344 304 C3344 329.08 3344 354.16 3344 380 C3369.08 380 3394.16 380 3420 380 C3420 580.64 3420 781.28 3420 988 C3394.92 988 3369.84 988 3344 988 C3344 1013.08 3344 1038.16 3344 1064 C3268.76 1064 3193.52 1064 3116 1064 C3116 1139.24 3116 1214.48 3116 1292 C3090.92 1292 3065.84 1292 3040 1292 C3040 1317.08 3040 1342.16 3040 1368 C2036.8 1368 1033.6 1368 0 1368 C0 1342.92 0 1317.84 0 1292 C-25.08 1292 -50.16 1292 -76 1292 C-76 1216.76 -76 1141.52 -76 1064 C-151.24 1064 -226.48 1064 -304 1064 C-304 1038.92 -304 1013.84 -304 988 C-329.08 988 -354.16 988 -380 988 C-380 787.36 -380 586.72 -380 380 C-354.92 380 -329.84 380 -304 380 C-304 354.92 -304 329.84 -304 304 C-228.76 304 -153.52 304 -76 304 C-76 228.76 -76 153.52 -76 76 C-50.92 76 -25.84 76 0 76 C0 50.92 0 25.84 0 0 Z " fill="#FFFFFF" transform="translate(2280,2061)"/>
<path d="M0 0 C50.16 0 100.32 0 152 0 C152 25.08 152 50.16 152 76 C177.08 76 202.16 76 228 76 C228 101.08 228 126.16 228 152 C253.08 152 278.16 152 304 152 C304 177.08 304 202.16 304 228 C1206.88 228 2109.76 228 3040 228 C3040 202.92 3040 177.84 3040 152 C3065.08 152 3090.16 152 3116 152 C3116 126.92 3116 101.84 3116 76 C3141.08 76 3166.16 76 3192 76 C3192 50.92 3192 25.84 3192 0 C3242.16 0 3292.32 0 3344 0 C3344 100.32 3344 200.64 3344 304 C3243.68 304 3143.36 304 3040 304 C3040 404.32 3040 504.64 3040 608 C2137.12 608 1234.24 608 304 608 C304 507.68 304 407.36 304 304 C203.68 304 103.36 304 0 304 C0 203.68 0 103.36 0 0 Z " fill="#464646" transform="translate(2128,2593)"/>
<path d="M0 0 C2357.52 0 4715.04 0 7144 0 C7144 50.16 7144 100.32 7144 152 C4786.48 152 2428.96 152 0 152 C0 101.84 0 51.68 0 0 Z " fill="#FFFFFF" transform="translate(228,5177)"/>
<path d="M0 0 C2156.88 0 4313.76 0 6536 0 C6536 50.16 6536 100.32 6536 152 C4379.12 152 2222.24 152 0 152 C0 101.84 0 51.68 0 0 Z " fill="#FFFFFF" transform="translate(532,5557)"/>
<path d="M0 0 C250.8 0 501.6 0 760 0 C760 401.28 760 802.56 760 1216 C659.68 1216 559.36 1216 456 1216 C456 1015.36 456 814.72 456 608 C405.84 608 355.68 608 304 608 C304 808.64 304 1009.28 304 1216 C203.68 1216 103.36 1216 0 1216 C0 814.72 0 413.44 0 0 Z M304 152 C304 252.32 304 352.64 304 456 C354.16 456 404.32 456 456 456 C456 355.68 456 255.36 456 152 C405.84 152 355.68 152 304 152 Z " fill="#000000" transform="translate(3420,3657)"/>
<path d="M0 0 C100.32 0 200.64 0 304 0 C304 150.48 304 300.96 304 456 C354.16 456 404.32 456 456 456 C456 305.52 456 155.04 456 0 C556.32 0 656.64 0 760 0 C760 401.28 760 802.56 760 1216 C659.68 1216 559.36 1216 456 1216 C456 1015.36 456 814.72 456 608 C405.84 608 355.68 608 304 608 C304 808.64 304 1009.28 304 1216 C203.68 1216 103.36 1216 0 1216 C0 814.72 0 413.44 0 0 Z " fill="#000000" transform="translate(6764,3657)"/>
<path d="M0 0 C250.8 0 501.6 0 760 0 C760 150.48 760 300.96 760 456 C709.84 456 659.68 456 608 456 C608 506.16 608 556.32 608 608 C658.16 608 708.32 608 760 608 C760 758.48 760 908.96 760 1064 C709.84 1064 659.68 1064 608 1064 C608 1114.16 608 1164.32 608 1216 C407.36 1216 206.72 1216 0 1216 C0 814.72 0 413.44 0 0 Z M304 152 C304 252.32 304 352.64 304 456 C354.16 456 404.32 456 456 456 C456 355.68 456 255.36 456 152 C405.84 152 355.68 152 304 152 Z M304 608 C304 758.48 304 908.96 304 1064 C354.16 1064 404.32 1064 456 1064 C456 913.52 456 763.04 456 608 C405.84 608 355.68 608 304 608 Z " fill="#000000" transform="translate(2508,3657)"/>
<path d="M0 0 C250.8 0 501.6 0 760 0 C760 150.48 760 300.96 760 456 C709.84 456 659.68 456 608 456 C608 506.16 608 556.32 608 608 C658.16 608 708.32 608 760 608 C760 808.64 760 1009.28 760 1216 C659.68 1216 559.36 1216 456 1216 C456 1015.36 456 814.72 456 608 C405.84 608 355.68 608 304 608 C304 808.64 304 1009.28 304 1216 C203.68 1216 103.36 1216 0 1216 C0 814.72 0 413.44 0 0 Z M304 152 C304 252.32 304 352.64 304 456 C354.16 456 404.32 456 456 456 C456 355.68 456 255.36 456 152 C405.84 152 355.68 152 304 152 Z " fill="#000000" transform="translate(836,3657)"/>
<path d="M0 0 C1003.2 0 2006.4 0 3040 0 C3040 25.08 3040 50.16 3040 76 C3065.08 76 3090.16 76 3116 76 C3116 652.84 3116 1229.68 3116 1824 C3065.84 1824 3015.68 1824 2964 1824 C2964 1272.24 2964 720.48 2964 152 C1985.88 152 1007.76 152 0 152 C0 101.84 0 51.68 0 0 Z " fill="#FFFFFF" transform="translate(4332,1605)"/>
<path d="M0 0 C1003.2 0 2006.4 0 3040 0 C3040 50.16 3040 100.32 3040 152 C2061.88 152 1083.76 152 76 152 C76 703.76 76 1255.52 76 1824 C25.84 1824 -24.32 1824 -76 1824 C-76 1247.16 -76 670.32 -76 76 C-50.92 76 -25.84 76 0 76 C0 50.92 0 25.84 0 0 Z " fill="#FFFFFF" transform="translate(228,1605)"/>
<path d="M0 0 C25.08 0 50.16 0 76 0 C76 50.16 76 100.32 76 152 C50.92 152 25.84 152 0 152 C0 177.08 0 202.16 0 228 C-25.08 228 -50.16 228 -76 228 C-76 253.08 -76 278.16 -76 304 C-50.92 304 -25.84 304 0 304 C0 329.08 0 354.16 0 380 C25.08 380 50.16 380 76 380 C76 354.92 76 329.84 76 304 C101.08 304 126.16 304 152 304 C152 278.92 152 253.84 152 228 C177.08 228 202.16 228 228 228 C228 278.16 228 328.32 228 380 C253.08 380 278.16 380 304 380 C304 405.08 304 430.16 304 456 C329.08 456 354.16 456 380 456 C380 506.16 380 556.32 380 608 C405.08 608 430.16 608 456 608 C456 658.16 456 708.32 456 760 C481.08 760 506.16 760 532 760 C532 835.24 532 910.48 532 988 C506.92 988 481.84 988 456 988 C456 1013.08 456 1038.16 456 1064 C430.92 1064 405.84 1064 380 1064 C380 1089.08 380 1114.16 380 1140 C129.2 1140 -121.6 1140 -380 1140 C-380 1114.92 -380 1089.84 -380 1064 C-405.08 1064 -430.16 1064 -456 1064 C-456 963.68 -456 863.36 -456 760 C-430.92 760 -405.84 760 -380 760 C-380 709.84 -380 659.68 -380 608 C-354.92 608 -329.84 608 -304 608 C-304 582.92 -304 557.84 -304 532 C-278.92 532 -253.84 532 -228 532 C-228 431.68 -228 331.36 -228 228 C-202.92 228 -177.84 228 -152 228 C-152 202.92 -152 177.84 -152 152 C-126.92 152 -101.84 152 -76 152 C-76 126.92 -76 101.84 -76 76 C-50.92 76 -25.84 76 0 76 C0 50.92 0 25.84 0 0 Z " fill="#FF7E00" transform="translate(3800,161)"/>
<path d="M0 0 C200.64 0 401.28 0 608 0 C608 50.16 608 100.32 608 152 C557.84 152 507.68 152 456 152 C456 452.96 456 753.92 456 1064 C506.16 1064 556.32 1064 608 1064 C608 1114.16 608 1164.32 608 1216 C407.36 1216 206.72 1216 0 1216 C0 1165.84 0 1115.68 0 1064 C50.16 1064 100.32 1064 152 1064 C152 763.04 152 462.08 152 152 C101.84 152 51.68 152 0 152 C0 101.84 0 51.68 0 0 Z " fill="#000000" transform="translate(5244,3657)"/>
<path d="M0 0 C200.64 0 401.28 0 608 0 C608 50.16 608 100.32 608 152 C557.84 152 507.68 152 456 152 C456 452.96 456 753.92 456 1064 C506.16 1064 556.32 1064 608 1064 C608 1114.16 608 1164.32 608 1216 C407.36 1216 206.72 1216 0 1216 C0 1165.84 0 1115.68 0 1064 C50.16 1064 100.32 1064 152 1064 C152 763.04 152 462.08 152 152 C101.84 152 51.68 152 0 152 C0 101.84 0 51.68 0 0 Z " fill="#000000" transform="translate(1748,3657)"/>
<path d="M0 0 C100.32 0 200.64 0 304 0 C304 351.12 304 702.24 304 1064 C454.48 1064 604.96 1064 760 1064 C760 1114.16 760 1164.32 760 1216 C509.2 1216 258.4 1216 0 1216 C0 814.72 0 413.44 0 0 Z " fill="#000000" transform="translate(4332,3657)"/>
<path d="M0 0 C200.64 0 401.28 0 608 0 C608 50.16 608 100.32 608 152 C557.84 152 507.68 152 456 152 C456 503.12 456 854.24 456 1216 C355.68 1216 255.36 1216 152 1216 C152 864.88 152 513.76 152 152 C101.84 152 51.68 152 0 152 C0 101.84 0 51.68 0 0 Z " fill="#000000" transform="translate(6004,3657)"/>
<path d="M0 0 C200.64 0 401.28 0 608 0 C608 50.16 608 100.32 608 152 C557.84 152 507.68 152 456 152 C456 503.12 456 854.24 456 1216 C355.68 1216 255.36 1216 152 1216 C152 864.88 152 513.76 152 152 C101.84 152 51.68 152 0 152 C0 101.84 0 51.68 0 0 Z " fill="#000000" transform="translate(76,3657)"/>
<path d="M0 0 C25.08 0 50.16 0 76 0 C76 25.08 76 50.16 76 76 C101.08 76 126.16 76 152 76 C152 101.08 152 126.16 152 152 C202.16 152 252.32 152 304 152 C304 126.92 304 101.84 304 76 C329.08 76 354.16 76 380 76 C380 101.08 380 126.16 380 152 C480.32 152 580.64 152 684 152 C684 126.92 684 101.84 684 76 C709.08 76 734.16 76 760 76 C760 101.08 760 126.16 760 152 C1060.96 152 1361.92 152 1672 152 C1672 101.84 1672 51.68 1672 0 C1697.08 0 1722.16 0 1748 0 C1748 50.16 1748 100.32 1748 152 C1873.4 152 1998.8 152 2128 152 C2128 126.92 2128 101.84 2128 76 C2153.08 76 2178.16 76 2204 76 C2204 50.92 2204 25.84 2204 0 C2254.16 0 2304.32 0 2356 0 C2356 25.08 2356 50.16 2356 76 C2330.92 76 2305.84 76 2280 76 C2280 101.08 2280 126.16 2280 152 C2355.24 152 2430.48 152 2508 152 C2508 126.92 2508 101.84 2508 76 C2558.16 76 2608.32 76 2660 76 C2660 50.92 2660 25.84 2660 0 C2685.08 0 2710.16 0 2736 0 C2736 75.24 2736 150.48 2736 228 C1833.12 228 930.24 228 0 228 C0 152.76 0 77.52 0 0 Z " fill="#383738" transform="translate(2432,2973)"/>
<path d="M0 0 C25.08 0 50.16 0 76 0 C76 175.56 76 351.12 76 532 C101.08 532 126.16 532 152 532 C152 557.08 152 582.16 152 608 C-48.64 608 -249.28 608 -456 608 C-456 582.92 -456 557.84 -456 532 C-430.92 532 -405.84 532 -380 532 C-380 506.92 -380 481.84 -380 456 C-354.92 456 -329.84 456 -304 456 C-304 405.84 -304 355.68 -304 304 C-278.92 304 -253.84 304 -228 304 C-228 278.92 -228 253.84 -228 228 C-202.92 228 -177.84 228 -152 228 C-152 253.08 -152 278.16 -152 304 C-126.92 304 -101.84 304 -76 304 C-76 228.76 -76 153.52 -76 76 C-50.92 76 -25.84 76 0 76 C0 50.92 0 25.84 0 0 Z " fill="#FFC20E" transform="translate(3952,693)"/>
<path d="M0 0 C75.24 0 150.48 0 228 0 C228 175.56 228 351.12 228 532 C202.92 532 177.84 532 152 532 C152 456.76 152 381.52 152 304 C126.92 304 101.84 304 76 304 C76 379.24 76 454.48 76 532 C50.92 532 25.84 532 0 532 C0 356.44 0 180.88 0 0 Z M76 76 C76 126.16 76 176.32 76 228 C101.08 228 126.16 228 152 228 C152 177.84 152 127.68 152 76 C126.92 76 101.84 76 76 76 Z " fill="#000000" transform="translate(5168,6545)"/>
<path d="M0 0 C75.24 0 150.48 0 228 0 C228 175.56 228 351.12 228 532 C202.92 532 177.84 532 152 532 C152 456.76 152 381.52 152 304 C126.92 304 101.84 304 76 304 C76 379.24 76 454.48 76 532 C50.92 532 25.84 532 0 532 C0 356.44 0 180.88 0 0 Z M76 76 C76 126.16 76 176.32 76 228 C101.08 228 126.16 228 152 228 C152 177.84 152 127.68 152 76 C126.92 76 101.84 76 76 76 Z " fill="#000000" transform="translate(1064,6545)"/>
<path d="M0 0 C25.08 0 50.16 0 76 0 C76 75.24 76 150.48 76 228 C101.08 228 126.16 228 152 228 C152 152.76 152 77.52 152 0 C177.08 0 202.16 0 228 0 C228 175.56 228 351.12 228 532 C202.92 532 177.84 532 152 532 C152 456.76 152 381.52 152 304 C126.92 304 101.84 304 76 304 C76 379.24 76 454.48 76 532 C50.92 532 25.84 532 0 532 C0 356.44 0 180.88 0 0 Z " fill="#000000" transform="translate(6308,6545)"/>
<path d="M0 0 C75.24 0 150.48 0 228 0 C228 175.56 228 351.12 228 532 C202.92 532 177.84 532 152 532 C152 381.52 152 231.04 152 76 C126.92 76 101.84 76 76 76 C76 226.48 76 376.96 76 532 C50.92 532 25.84 532 0 532 C0 356.44 0 180.88 0 0 Z " fill="#000000" transform="translate(1368,6545)"/>
<path d="M0 0 C75.24 0 150.48 0 228 0 C228 25.08 228 50.16 228 76 C202.92 76 177.84 76 152 76 C152 201.4 152 326.8 152 456 C177.08 456 202.16 456 228 456 C228 481.08 228 506.16 228 532 C152.76 532 77.52 532 0 532 C0 506.92 0 481.84 0 456 C25.08 456 50.16 456 76 456 C76 330.6 76 205.2 76 76 C50.92 76 25.84 76 0 76 C0 50.92 0 25.84 0 0 Z " fill="#000000" transform="translate(5700,6545)"/>
<path d="M0 0 C75.24 0 150.48 0 228 0 C228 25.08 228 50.16 228 76 C202.92 76 177.84 76 152 76 C152 201.4 152 326.8 152 456 C177.08 456 202.16 456 228 456 C228 481.08 228 506.16 228 532 C152.76 532 77.52 532 0 532 C0 506.92 0 481.84 0 456 C25.08 456 50.16 456 76 456 C76 330.6 76 205.2 76 76 C50.92 76 25.84 76 0 76 C0 50.92 0 25.84 0 0 Z " fill="#000000" transform="translate(4560,6545)"/>
<path d="M0 0 C50.16 0 100.32 0 152 0 C152 25.08 152 50.16 152 76 C126.92 76 101.84 76 76 76 C76 126.16 76 176.32 76 228 C101.08 228 126.16 228 152 228 C152 253.08 152 278.16 152 304 C126.92 304 101.84 304 76 304 C76 354.16 76 404.32 76 456 C101.08 456 126.16 456 152 456 C152 481.08 152 506.16 152 532 C101.84 532 51.68 532 0 532 C0 356.44 0 180.88 0 0 Z " fill="#000000" transform="translate(4864,6545)"/>
<path d="M0 0 C50.16 0 100.32 0 152 0 C152 25.08 152 50.16 152 76 C126.92 76 101.84 76 76 76 C76 126.16 76 176.32 76 228 C101.08 228 126.16 228 152 228 C152 253.08 152 278.16 152 304 C126.92 304 101.84 304 76 304 C76 354.16 76 404.32 76 456 C101.08 456 126.16 456 152 456 C152 481.08 152 506.16 152 532 C101.84 532 51.68 532 0 532 C0 356.44 0 180.88 0 0 Z " fill="#000000" transform="translate(2736,6545)"/>
<path d="M0 0 C50.16 0 100.32 0 152 0 C152 25.08 152 50.16 152 76 C126.92 76 101.84 76 76 76 C76 126.16 76 176.32 76 228 C101.08 228 126.16 228 152 228 C152 253.08 152 278.16 152 304 C126.92 304 101.84 304 76 304 C76 354.16 76 404.32 76 456 C101.08 456 126.16 456 152 456 C152 481.08 152 506.16 152 532 C101.84 532 51.68 532 0 532 C0 356.44 0 180.88 0 0 Z " fill="#000000" transform="translate(1976,6545)"/>
<path d="M0 0 C75.24 0 150.48 0 228 0 C228 25.08 228 50.16 228 76 C202.92 76 177.84 76 152 76 C152 226.48 152 376.96 152 532 C126.92 532 101.84 532 76 532 C76 381.52 76 231.04 76 76 C50.92 76 25.84 76 0 76 C0 50.92 0 25.84 0 0 Z " fill="#000000" transform="translate(6004,6545)"/>
<path d="M0 0 C50.16 0 100.32 0 152 0 C152 25.08 152 50.16 152 76 C126.92 76 101.84 76 76 76 C76 126.16 76 176.32 76 228 C101.08 228 126.16 228 152 228 C152 253.08 152 278.16 152 304 C126.92 304 101.84 304 76 304 C76 379.24 76 454.48 76 532 C50.92 532 25.84 532 0 532 C0 356.44 0 180.88 0 0 Z " fill="#000000" transform="translate(4256,6545)"/>
<path d="M0 0 C75.24 0 150.48 0 228 0 C228 25.08 228 50.16 228 76 C202.92 76 177.84 76 152 76 C152 226.48 152 376.96 152 532 C126.92 532 101.84 532 76 532 C76 381.52 76 231.04 76 76 C50.92 76 25.84 76 0 76 C0 50.92 0 25.84 0 0 Z " fill="#000000" transform="translate(3952,6545)"/>
<path d="M0 0 C50.16 0 100.32 0 152 0 C152 25.08 152 50.16 152 76 C126.92 76 101.84 76 76 76 C76 126.16 76 176.32 76 228 C101.08 228 126.16 228 152 228 C152 253.08 152 278.16 152 304 C126.92 304 101.84 304 76 304 C76 379.24 76 454.48 76 532 C50.92 532 25.84 532 0 532 C0 356.44 0 180.88 0 0 Z " fill="#000000" transform="translate(2964,6545)"/>
<path d="M0 0 C25.08 0 50.16 0 76 0 C76 50.16 76 100.32 76 152 C101.08 152 126.16 152 152 152 C152 177.08 152 202.16 152 228 C126.92 228 101.84 228 76 228 C76 253.08 76 278.16 76 304 C101.08 304 126.16 304 152 304 C152 329.08 152 354.16 152 380 C126.92 380 101.84 380 76 380 C76 430.16 76 480.32 76 532 C50.92 532 25.84 532 0 532 C0 356.44 0 180.88 0 0 Z " fill="#000000" transform="translate(2432,6545)"/>
<path d="M0 0 C50.16 0 100.32 0 152 0 C152 25.08 152 50.16 152 76 C126.92 76 101.84 76 76 76 C76 201.4 76 326.8 76 456 C101.08 456 126.16 456 152 456 C152 481.08 152 506.16 152 532 C101.84 532 51.68 532 0 532 C0 356.44 0 180.88 0 0 Z " fill="#000000" transform="translate(2204,6545)"/>
<path d="M0 0 C75.24 0 150.48 0 228 0 C228 25.08 228 50.16 228 76 C202.92 76 177.84 76 152 76 C152 226.48 152 376.96 152 532 C126.92 532 101.84 532 76 532 C76 381.52 76 231.04 76 76 C50.92 76 25.84 76 0 76 C0 50.92 0 25.84 0 0 Z " fill="#000000" transform="translate(1672,6545)"/>
<path d="M0 0 C25.08 0 50.16 0 76 0 C76 225.72 76 451.44 76 684 C50.92 684 25.84 684 0 684 C0 458.28 0 232.56 0 0 Z " fill="#000000" transform="translate(3572,6469)"/>
<path d="M0 0 C25.08 0 50.16 0 76 0 C76 150.48 76 300.96 76 456 C101.08 456 126.16 456 152 456 C152 481.08 152 506.16 152 532 C101.84 532 51.68 532 0 532 C0 356.44 0 180.88 0 0 Z " fill="#000000" transform="translate(5472,6545)"/>
<path d="M0 0 C75.24 0 150.48 0 228 0 C228 25.08 228 50.16 228 76 C177.84 76 127.68 76 76 76 C76 101.08 76 126.16 76 152 C126.16 152 176.32 152 228 152 C228 177.08 228 202.16 228 228 C152.76 228 77.52 228 0 228 C0 152.76 0 77.52 0 0 Z " fill="#000000" transform="translate(608,6697)"/>
<path d="M0 0 C25.08 0 50.16 0 76 0 C76 100.32 76 200.64 76 304 C0.76 304 -74.48 304 -152 304 C-152 278.92 -152 253.84 -152 228 C-126.92 228 -101.84 228 -76 228 C-76 202.92 -76 177.84 -76 152 C-50.92 152 -25.84 152 0 152 C0 101.84 0 51.68 0 0 Z " fill="#383738" transform="translate(5396,2593)"/>
<path d="M0 0 C25.08 0 50.16 0 76 0 C76 50.16 76 100.32 76 152 C101.08 152 126.16 152 152 152 C152 177.08 152 202.16 152 228 C177.08 228 202.16 228 228 228 C228 253.08 228 278.16 228 304 C152.76 304 77.52 304 0 304 C0 203.68 0 103.36 0 0 Z " fill="#383738" transform="translate(2128,2593)"/>
<path d="M0 0 C25.08 0 50.16 0 76 0 C76 125.4 76 250.8 76 380 C50.92 380 25.84 380 0 380 C0 254.6 0 129.2 0 0 Z " fill="#000000" transform="translate(6764,6697)"/>
<path d="M0 0 C25.08 0 50.16 0 76 0 C76 125.4 76 250.8 76 380 C50.92 380 25.84 380 0 380 C0 254.6 0 129.2 0 0 Z " fill="#000000" transform="translate(7068,6621)"/>
<path d="M0 0 C25.08 0 50.16 0 76 0 C76 125.4 76 250.8 76 380 C50.92 380 25.84 380 0 380 C0 254.6 0 129.2 0 0 Z " fill="#000000" transform="translate(6916,6621)"/>
<path d="M0 0 C25.08 0 50.16 0 76 0 C76 50.16 76 100.32 76 152 C126.16 152 176.32 152 228 152 C228 177.08 228 202.16 228 228 C152.76 228 77.52 228 0 228 C0 152.76 0 77.52 0 0 Z " fill="#464646" transform="translate(4256,2289)"/>
<path d="M0 0 C75.24 0 150.48 0 228 0 C228 25.08 228 50.16 228 76 C152.76 76 77.52 76 0 76 C0 50.92 0 25.84 0 0 Z " fill="#000000" transform="translate(608,7001)"/>
<path d="M0 0 C25.08 0 50.16 0 76 0 C76 75.24 76 150.48 76 228 C50.92 228 25.84 228 0 228 C0 152.76 0 77.52 0 0 Z " fill="#000000" transform="translate(4408,6849)"/>
<path d="M0 0 C25.08 0 50.16 0 76 0 C76 75.24 76 150.48 76 228 C50.92 228 25.84 228 0 228 C0 152.76 0 77.52 0 0 Z " fill="#000000" transform="translate(3116,6849)"/>
<path d="M0 0 C25.08 0 50.16 0 76 0 C76 75.24 76 150.48 76 228 C50.92 228 25.84 228 0 228 C0 152.76 0 77.52 0 0 Z " fill="#000000" transform="translate(912,6697)"/>
<path d="M0 0 C25.08 0 50.16 0 76 0 C76 75.24 76 150.48 76 228 C50.92 228 25.84 228 0 228 C0 152.76 0 77.52 0 0 Z " fill="#000000" transform="translate(456,6697)"/>
<path d="M0 0 C75.24 0 150.48 0 228 0 C228 25.08 228 50.16 228 76 C152.76 76 77.52 76 0 76 C0 50.92 0 25.84 0 0 Z " fill="#000000" transform="translate(608,6545)"/>
<path d="M0 0 C25.08 0 50.16 0 76 0 C76 50.16 76 100.32 76 152 C50.92 152 25.84 152 0 152 C0 101.84 0 51.68 0 0 Z " fill="#000000" transform="translate(2584,6925)"/>
<path d="M0 0 C25.08 0 50.16 0 76 0 C76 50.16 76 100.32 76 152 C50.92 152 25.84 152 0 152 C0 101.84 0 51.68 0 0 Z " fill="#000000" transform="translate(5016,6849)"/>
<path d="M0 0 C25.08 0 50.16 0 76 0 C76 50.16 76 100.32 76 152 C50.92 152 25.84 152 0 152 C0 101.84 0 51.68 0 0 Z " fill="#000000" transform="translate(5016,6621)"/>
<path d="M0 0 C25.08 0 50.16 0 76 0 C76 50.16 76 100.32 76 152 C50.92 152 25.84 152 0 152 C0 101.84 0 51.68 0 0 Z " fill="#000000" transform="translate(4408,6621)"/>
<path d="M0 0 C25.08 0 50.16 0 76 0 C76 50.16 76 100.32 76 152 C50.92 152 25.84 152 0 152 C0 101.84 0 51.68 0 0 Z " fill="#000000" transform="translate(3116,6621)"/>
<path d="M0 0 C25.08 0 50.16 0 76 0 C76 50.16 76 100.32 76 152 C50.92 152 25.84 152 0 152 C0 101.84 0 51.68 0 0 Z " fill="#000000" transform="translate(2584,6545)"/>
<path d="M0 0 C50.16 0 100.32 0 152 0 C152 25.08 152 50.16 152 76 C101.84 76 51.68 76 0 76 C0 50.92 0 25.84 0 0 Z " fill="#383738" transform="translate(3876,2973)"/>
<path d="M0 0 C50.16 0 100.32 0 152 0 C152 25.08 152 50.16 152 76 C101.84 76 51.68 76 0 76 C0 50.92 0 25.84 0 0 Z " fill="#383738" transform="translate(3192,2973)"/>
<path d="M0 0 C25.08 0 50.16 0 76 0 C76 50.16 76 100.32 76 152 C50.92 152 25.84 152 0 152 C0 101.84 0 51.68 0 0 Z " fill="#464646" transform="translate(2812,2365)"/>
<path d="M0 0 C25.08 0 50.16 0 76 0 C76 25.08 76 50.16 76 76 C50.92 76 25.84 76 0 76 C0 50.92 0 25.84 0 0 Z " fill="#000000" transform="translate(6992,7001)"/>
<path d="M0 0 C25.08 0 50.16 0 76 0 C76 25.08 76 50.16 76 76 C50.92 76 25.84 76 0 76 C0 50.92 0 25.84 0 0 Z " fill="#000000" transform="translate(6612,7001)"/>
<path d="M0 0 C25.08 0 50.16 0 76 0 C76 25.08 76 50.16 76 76 C50.92 76 25.84 76 0 76 C0 50.92 0 25.84 0 0 Z " fill="#000000" transform="translate(836,6925)"/>
<path d="M0 0 C25.08 0 50.16 0 76 0 C76 25.08 76 50.16 76 76 C50.92 76 25.84 76 0 76 C0 50.92 0 25.84 0 0 Z " fill="#000000" transform="translate(532,6925)"/>
<path d="M0 0 C25.08 0 50.16 0 76 0 C76 25.08 76 50.16 76 76 C50.92 76 25.84 76 0 76 C0 50.92 0 25.84 0 0 Z " fill="#000000" transform="translate(836,6621)"/>
<path d="M0 0 C25.08 0 50.16 0 76 0 C76 25.08 76 50.16 76 76 C50.92 76 25.84 76 0 76 C0 50.92 0 25.84 0 0 Z " fill="#000000" transform="translate(532,6621)"/>
<path d="M0 0 C25.08 0 50.16 0 76 0 C76 25.08 76 50.16 76 76 C50.92 76 25.84 76 0 76 C0 50.92 0 25.84 0 0 Z " fill="#000000" transform="translate(6992,6545)"/>
<path d="M0 0 C25.08 0 50.16 0 76 0 C76 25.08 76 50.16 76 76 C50.92 76 25.84 76 0 76 C0 50.92 0 25.84 0 0 Z " fill="#000000" transform="translate(6764,6545)"/>
<path d="M0 0 C25.08 0 50.16 0 76 0 C76 25.08 76 50.16 76 76 C50.92 76 25.84 76 0 76 C0 50.92 0 25.84 0 0 Z " fill="#383738" transform="translate(4864,2973)"/>
<path d="M0 0 C25.08 0 50.16 0 76 0 C76 25.08 76 50.16 76 76 C50.92 76 25.84 76 0 76 C0 50.92 0 25.84 0 0 Z " fill="#383738" transform="translate(4788,2897)"/>
<path d="M0 0 C25.08 0 50.16 0 76 0 C76 25.08 76 50.16 76 76 C50.92 76 25.84 76 0 76 C0 50.92 0 25.84 0 0 Z " fill="#383738" transform="translate(3800,2897)"/>
<path d="M0 0 C25.08 0 50.16 0 76 0 C76 25.08 76 50.16 76 76 C50.92 76 25.84 76 0 76 C0 50.92 0 25.84 0 0 Z " fill="#464646" transform="translate(4180,2517)"/>
<path d="M0 0 C25.08 0 50.16 0 76 0 C76 25.08 76 50.16 76 76 C50.92 76 25.84 76 0 76 C0 50.92 0 25.84 0 0 Z " fill="#464646" transform="translate(2736,2517)"/>
</svg>
